<mxfile host="Electron" modified="2020-07-18T03:01:22.494Z" agent="5.0 (X11; Linux x86_64) AppleWebKit/537.36 (KHTML, like Gecko) draw.io/13.3.9 Chrome/83.0.4103.119 Electron/9.0.5 Safari/537.36" etag="AcIxKrp3X-QvF2XPnwoV" compressed="false" version="13.3.9" type="device">
  <diagram id="NMmZZ6J1SFLeiroNcZ4v" name="Page-1">
    <mxGraphModel dx="1038" dy="636" grid="1" gridSize="10" guides="0" tooltips="1" connect="1" arrows="1" fold="1" page="1" pageScale="1" pageWidth="850" pageHeight="1100" math="0" shadow="0">
      <root>
        <mxCell id="0" />
        <mxCell id="1" parent="0" />
        <mxCell id="hH1P5SE95vpx9j7kM1k2-25" style="edgeStyle=orthogonalEdgeStyle;rounded=0;orthogonalLoop=1;jettySize=auto;html=1;strokeWidth=2;fillColor=#fff2cc;strokeColor=#d6b656;" parent="1" source="hH1P5SE95vpx9j7kM1k2-23" target="hH1P5SE95vpx9j7kM1k2-3" edge="1">
          <mxGeometry relative="1" as="geometry">
            <Array as="points">
              <mxPoint x="710" y="1090" />
              <mxPoint x="490" y="1090" />
            </Array>
          </mxGeometry>
        </mxCell>
        <mxCell id="L8fFzipgd7BgljR_K-Mj-56" value="&lt;font color=&quot;#6c8ebf&quot;&gt;add-symbol-file &lt;/font&gt;&lt;font color=&quot;#82b366&quot;&gt;dlls/ntdll/ntdll.so&lt;/font&gt;&lt;font color=&quot;#6c8ebf&quot;&gt; -o 0xf7b72000 (0xff35c000@qemu)&lt;/font&gt;" style="endArrow=none;dashed=1;html=1;strokeWidth=1;fillColor=#dae8fc;strokeColor=#6c8ebf;" parent="1" edge="1">
          <mxGeometry width="50" height="50" relative="1" as="geometry">
            <mxPoint x="60" y="550" as="sourcePoint" />
            <mxPoint x="520" y="550" as="targetPoint" />
          </mxGeometry>
        </mxCell>
        <mxCell id="L8fFzipgd7BgljR_K-Mj-55" value="&lt;font color=&quot;#6c8ebf&quot;&gt;symbol-file loader/wine&lt;/font&gt;" style="endArrow=none;dashed=1;html=1;strokeWidth=1;fillColor=#dae8fc;strokeColor=#6c8ebf;" parent="1" edge="1">
          <mxGeometry width="50" height="50" relative="1" as="geometry">
            <mxPoint x="60" y="400" as="sourcePoint" />
            <mxPoint x="340" y="400" as="targetPoint" />
          </mxGeometry>
        </mxCell>
        <mxCell id="L8fFzipgd7BgljR_K-Mj-1" value="&lt;b&gt;main&lt;/b&gt;" style="rounded=0;whiteSpace=wrap;html=1;" parent="1" vertex="1">
          <mxGeometry x="80" y="80" width="40" height="20" as="geometry" />
        </mxCell>
        <mxCell id="L8fFzipgd7BgljR_K-Mj-2" value="loader/main.c: 278~316" style="text;html=1;align=left;verticalAlign=middle;resizable=0;points=[];autosize=1;" parent="1" vertex="1">
          <mxGeometry x="80" y="60" width="140" height="20" as="geometry" />
        </mxCell>
        <mxCell id="L8fFzipgd7BgljR_K-Mj-3" value="&lt;b&gt;load_ntdll&lt;/b&gt;" style="rounded=0;whiteSpace=wrap;html=1;" parent="1" vertex="1">
          <mxGeometry x="120" y="120" width="60" height="20" as="geometry" />
        </mxCell>
        <mxCell id="L8fFzipgd7BgljR_K-Mj-4" value="char* argv0" style="rounded=0;whiteSpace=wrap;html=1;fillColor=#f5f5f5;strokeColor=#666666;fontColor=#333333;" parent="1" vertex="1">
          <mxGeometry x="180" y="120" width="80" height="20" as="geometry" />
        </mxCell>
        <mxCell id="L8fFzipgd7BgljR_K-Mj-5" value="loader/main.c: 242~272" style="text;html=1;align=left;verticalAlign=middle;resizable=0;points=[];autosize=1;" parent="1" vertex="1">
          <mxGeometry x="120" y="100" width="140" height="20" as="geometry" />
        </mxCell>
        <mxCell id="L8fFzipgd7BgljR_K-Mj-6" value="&lt;b&gt;init_func&lt;/b&gt;" style="rounded=0;whiteSpace=wrap;html=1;" parent="1" vertex="1">
          <mxGeometry x="120" y="160" width="60" height="20" as="geometry" />
        </mxCell>
        <mxCell id="L8fFzipgd7BgljR_K-Mj-7" value="dlls/ntdll/unix/loader.c: 1797~1835" style="text;html=1;align=left;verticalAlign=middle;resizable=0;points=[];autosize=1;" parent="1" vertex="1">
          <mxGeometry x="120" y="140" width="200" height="20" as="geometry" />
        </mxCell>
        <mxCell id="L8fFzipgd7BgljR_K-Mj-8" value="&lt;b&gt;__wine_main&lt;/b&gt;" style="rounded=0;whiteSpace=wrap;html=1;" parent="1" vertex="1">
          <mxGeometry x="200" y="160" width="80" height="20" as="geometry" />
        </mxCell>
        <mxCell id="L8fFzipgd7BgljR_K-Mj-9" value="" style="shape=link;html=1;" parent="1" source="L8fFzipgd7BgljR_K-Mj-6" target="L8fFzipgd7BgljR_K-Mj-8" edge="1">
          <mxGeometry width="100" relative="1" as="geometry">
            <mxPoint x="100" y="230" as="sourcePoint" />
            <mxPoint x="200" y="230" as="targetPoint" />
          </mxGeometry>
        </mxCell>
        <mxCell id="L8fFzipgd7BgljR_K-Mj-10" value="&lt;b&gt;loader_exec&lt;/b&gt;" style="rounded=0;whiteSpace=wrap;html=1;" parent="1" vertex="1">
          <mxGeometry x="160" y="200" width="80" height="20" as="geometry" />
        </mxCell>
        <mxCell id="L8fFzipgd7BgljR_K-Mj-11" value="&lt;font color=&quot;#999999&quot;&gt;/// i386需要preloader来重新安排内存&lt;/font&gt;" style="text;html=1;align=left;verticalAlign=middle;resizable=0;points=[];autosize=1;" parent="1" vertex="1">
          <mxGeometry x="160" y="220" width="210" height="20" as="geometry" />
        </mxCell>
        <mxCell id="L8fFzipgd7BgljR_K-Mj-12" value="..." style="rounded=0;whiteSpace=wrap;html=1;fillColor=#f5f5f5;strokeColor=#666666;fontColor=#333333;" parent="1" vertex="1">
          <mxGeometry x="120" y="80" width="20" height="20" as="geometry" />
        </mxCell>
        <mxCell id="L8fFzipgd7BgljR_K-Mj-13" value="..." style="rounded=0;whiteSpace=wrap;html=1;fillColor=#f5f5f5;strokeColor=#666666;fontColor=#333333;" parent="1" vertex="1">
          <mxGeometry x="280" y="160" width="20" height="20" as="geometry" />
        </mxCell>
        <mxCell id="L8fFzipgd7BgljR_K-Mj-14" value="..." style="rounded=0;whiteSpace=wrap;html=1;fillColor=#f5f5f5;strokeColor=#666666;fontColor=#333333;" parent="1" vertex="1">
          <mxGeometry x="240" y="200" width="20" height="20" as="geometry" />
        </mxCell>
        <mxCell id="L8fFzipgd7BgljR_K-Mj-15" value="dlls/ntdll/unix/loader.c: 430~460" style="text;html=1;align=left;verticalAlign=middle;resizable=0;points=[];autosize=1;" parent="1" vertex="1">
          <mxGeometry x="160" y="180" width="180" height="20" as="geometry" />
        </mxCell>
        <mxCell id="L8fFzipgd7BgljR_K-Mj-16" value="&lt;u&gt;Wine Version: 5.12&lt;/u&gt;" style="text;html=1;align=left;verticalAlign=middle;resizable=0;points=[];autosize=1;" parent="1" vertex="1">
          <mxGeometry x="80" y="10" width="120" height="20" as="geometry" />
        </mxCell>
        <mxCell id="L8fFzipgd7BgljR_K-Mj-17" value="&lt;b&gt;preloader_exec&lt;/b&gt;" style="rounded=0;whiteSpace=wrap;html=1;" parent="1" vertex="1">
          <mxGeometry x="200" y="240" width="100" height="20" as="geometry" />
        </mxCell>
        <mxCell id="L8fFzipgd7BgljR_K-Mj-18" value="..." style="rounded=0;whiteSpace=wrap;html=1;fillColor=#f5f5f5;strokeColor=#666666;fontColor=#333333;" parent="1" vertex="1">
          <mxGeometry x="300" y="240" width="20" height="20" as="geometry" />
        </mxCell>
        <mxCell id="L8fFzipgd7BgljR_K-Mj-20" value="" style="endArrow=none;html=1;" parent="1" edge="1">
          <mxGeometry width="50" height="50" relative="1" as="geometry">
            <mxPoint x="70" y="2280" as="sourcePoint" />
            <mxPoint x="70" y="30" as="targetPoint" />
          </mxGeometry>
        </mxCell>
        <mxCell id="L8fFzipgd7BgljR_K-Mj-21" value="" style="endArrow=none;html=1;" parent="1" edge="1">
          <mxGeometry width="50" height="50" relative="1" as="geometry">
            <mxPoint x="70" y="30" as="sourcePoint" />
            <mxPoint x="770" y="30" as="targetPoint" />
          </mxGeometry>
        </mxCell>
        <mxCell id="L8fFzipgd7BgljR_K-Mj-22" value="&lt;b&gt;execv&lt;/b&gt;" style="endArrow=none;html=1;" parent="1" edge="1">
          <mxGeometry width="50" height="50" relative="1" as="geometry">
            <mxPoint x="70" y="270" as="sourcePoint" />
            <mxPoint x="770" y="270" as="targetPoint" />
          </mxGeometry>
        </mxCell>
        <mxCell id="L8fFzipgd7BgljR_K-Mj-23" value="&lt;b&gt;_start&lt;/b&gt;" style="rounded=0;whiteSpace=wrap;html=1;" parent="1" vertex="1">
          <mxGeometry x="80" y="320" width="40" height="20" as="geometry" />
        </mxCell>
        <mxCell id="L8fFzipgd7BgljR_K-Mj-24" value="&lt;b&gt;&lt;font style=&quot;font-size: 18px&quot;&gt;wine&lt;/font&gt;&lt;/b&gt;" style="text;html=1;align=center;verticalAlign=middle;resizable=0;points=[];autosize=1;" parent="1" vertex="1">
          <mxGeometry x="80" y="40" width="60" height="20" as="geometry" />
        </mxCell>
        <mxCell id="L8fFzipgd7BgljR_K-Mj-25" value="&lt;b&gt;&lt;font style=&quot;font-size: 18px&quot;&gt;wine-preloader&lt;/font&gt;&lt;/b&gt;" style="text;html=1;align=center;verticalAlign=middle;resizable=0;points=[];autosize=1;" parent="1" vertex="1">
          <mxGeometry x="80" y="280" width="140" height="20" as="geometry" />
        </mxCell>
        <mxCell id="L8fFzipgd7BgljR_K-Mj-26" value="loader/preloader.c: 218~242" style="text;html=1;align=left;verticalAlign=middle;resizable=0;points=[];autosize=1;" parent="1" vertex="1">
          <mxGeometry x="80" y="300" width="170" height="20" as="geometry" />
        </mxCell>
        <mxCell id="L8fFzipgd7BgljR_K-Mj-28" value="&lt;b&gt;wld_start&lt;/b&gt;" style="rounded=0;whiteSpace=wrap;html=1;" parent="1" vertex="1">
          <mxGeometry x="120" y="360" width="60" height="20" as="geometry" />
        </mxCell>
        <mxCell id="L8fFzipgd7BgljR_K-Mj-29" value="loader/preloader.c: 1256~1379" style="text;html=1;align=left;verticalAlign=middle;resizable=0;points=[];autosize=1;" parent="1" vertex="1">
          <mxGeometry x="120" y="340" width="180" height="20" as="geometry" />
        </mxCell>
        <mxCell id="L8fFzipgd7BgljR_K-Mj-30" value="void **stack" style="rounded=0;whiteSpace=wrap;html=1;fillColor=#f5f5f5;strokeColor=#666666;fontColor=#333333;" parent="1" vertex="1">
          <mxGeometry x="180" y="360" width="80" height="20" as="geometry" />
        </mxCell>
        <mxCell id="L8fFzipgd7BgljR_K-Mj-31" value="&lt;font color=&quot;#999999&quot;&gt;/// 重新安排内存，然后调用&lt;br&gt;/// 动态链接器(ld.so)再次执行wine&lt;/font&gt;" style="text;html=1;align=left;verticalAlign=middle;resizable=0;points=[];autosize=1;" parent="1" vertex="1">
          <mxGeometry x="120" y="315" width="190" height="30" as="geometry" />
        </mxCell>
        <mxCell id="L8fFzipgd7BgljR_K-Mj-32" value="&lt;b&gt;ELF interpreter (ld.so)&lt;/b&gt;" style="endArrow=none;html=1;" parent="1" edge="1">
          <mxGeometry width="50" height="50" relative="1" as="geometry">
            <mxPoint x="70" y="430" as="sourcePoint" />
            <mxPoint x="770" y="430" as="targetPoint" />
          </mxGeometry>
        </mxCell>
        <mxCell id="L8fFzipgd7BgljR_K-Mj-33" value="" style="endArrow=classic;html=1;strokeWidth=2;fillColor=#dae8fc;strokeColor=#6c8ebf;" parent="1" edge="1">
          <mxGeometry width="50" height="50" relative="1" as="geometry">
            <mxPoint x="60" y="80" as="sourcePoint" />
            <mxPoint x="60" y="400" as="targetPoint" />
          </mxGeometry>
        </mxCell>
        <mxCell id="L8fFzipgd7BgljR_K-Mj-34" value="&lt;font color=&quot;#6c8ebf&quot;&gt;&lt;b&gt;GDB断点&lt;/b&gt;&lt;/font&gt;" style="text;html=1;align=left;verticalAlign=middle;resizable=0;points=[];autosize=1;rotation=-90;" parent="1" vertex="1">
          <mxGeometry x="25" y="35" width="70" height="20" as="geometry" />
        </mxCell>
        <mxCell id="L8fFzipgd7BgljR_K-Mj-35" value="&lt;font color=&quot;#999999&quot;&gt;/// load main binary (wine)&lt;/font&gt;" style="text;html=1;align=left;verticalAlign=middle;resizable=0;points=[];autosize=1;" parent="1" vertex="1">
          <mxGeometry x="160" y="380" width="150" height="20" as="geometry" />
        </mxCell>
        <mxCell id="L8fFzipgd7BgljR_K-Mj-36" value="&lt;font color=&quot;#999999&quot;&gt;/// load ELF interpreter (ld.so)&lt;/font&gt;" style="text;html=1;align=left;verticalAlign=middle;resizable=0;points=[];autosize=1;" parent="1" vertex="1">
          <mxGeometry x="160" y="400" width="170" height="20" as="geometry" />
        </mxCell>
        <mxCell id="L8fFzipgd7BgljR_K-Mj-38" value="&lt;b&gt;main&lt;/b&gt;" style="rounded=0;whiteSpace=wrap;html=1;" parent="1" vertex="1">
          <mxGeometry x="80" y="480" width="40" height="20" as="geometry" />
        </mxCell>
        <mxCell id="L8fFzipgd7BgljR_K-Mj-39" value="loader/main.c: 278~316" style="text;html=1;align=left;verticalAlign=middle;resizable=0;points=[];autosize=1;" parent="1" vertex="1">
          <mxGeometry x="80" y="460" width="140" height="20" as="geometry" />
        </mxCell>
        <mxCell id="L8fFzipgd7BgljR_K-Mj-40" value="&lt;b&gt;load_ntdll&lt;/b&gt;" style="rounded=0;whiteSpace=wrap;html=1;" parent="1" vertex="1">
          <mxGeometry x="120" y="520" width="60" height="20" as="geometry" />
        </mxCell>
        <mxCell id="L8fFzipgd7BgljR_K-Mj-41" value="char* argv0" style="rounded=0;whiteSpace=wrap;html=1;fillColor=#f5f5f5;strokeColor=#666666;fontColor=#333333;" parent="1" vertex="1">
          <mxGeometry x="180" y="520" width="80" height="20" as="geometry" />
        </mxCell>
        <mxCell id="L8fFzipgd7BgljR_K-Mj-42" value="loader/main.c: 242~272" style="text;html=1;align=left;verticalAlign=middle;resizable=0;points=[];autosize=1;" parent="1" vertex="1">
          <mxGeometry x="120" y="500" width="140" height="20" as="geometry" />
        </mxCell>
        <mxCell id="L8fFzipgd7BgljR_K-Mj-43" value="&lt;b&gt;init_func&lt;/b&gt;" style="rounded=0;whiteSpace=wrap;html=1;" parent="1" vertex="1">
          <mxGeometry x="120" y="570" width="60" height="20" as="geometry" />
        </mxCell>
        <mxCell id="L8fFzipgd7BgljR_K-Mj-44" value="dlls/ntdll/unix/loader.c: 1797~1835" style="text;html=1;align=left;verticalAlign=middle;resizable=0;points=[];autosize=1;" parent="1" vertex="1">
          <mxGeometry x="120" y="550" width="200" height="20" as="geometry" />
        </mxCell>
        <mxCell id="L8fFzipgd7BgljR_K-Mj-45" value="&lt;b&gt;__wine_main&lt;/b&gt;" style="rounded=0;whiteSpace=wrap;html=1;" parent="1" vertex="1">
          <mxGeometry x="200" y="570" width="80" height="20" as="geometry" />
        </mxCell>
        <mxCell id="L8fFzipgd7BgljR_K-Mj-46" value="" style="shape=link;html=1;" parent="1" source="L8fFzipgd7BgljR_K-Mj-43" target="L8fFzipgd7BgljR_K-Mj-45" edge="1">
          <mxGeometry width="100" relative="1" as="geometry">
            <mxPoint x="100" y="640" as="sourcePoint" />
            <mxPoint x="200" y="640" as="targetPoint" />
          </mxGeometry>
        </mxCell>
        <mxCell id="L8fFzipgd7BgljR_K-Mj-47" value="&lt;b&gt;start_main_thread&lt;/b&gt;" style="rounded=0;whiteSpace=wrap;html=1;" parent="1" vertex="1">
          <mxGeometry x="160" y="670" width="120" height="20" as="geometry" />
        </mxCell>
        <mxCell id="L8fFzipgd7BgljR_K-Mj-48" value="..." style="rounded=0;whiteSpace=wrap;html=1;fillColor=#f5f5f5;strokeColor=#666666;fontColor=#333333;" parent="1" vertex="1">
          <mxGeometry x="120" y="480" width="20" height="20" as="geometry" />
        </mxCell>
        <mxCell id="L8fFzipgd7BgljR_K-Mj-49" value="..." style="rounded=0;whiteSpace=wrap;html=1;fillColor=#f5f5f5;strokeColor=#666666;fontColor=#333333;" parent="1" vertex="1">
          <mxGeometry x="280" y="570" width="20" height="20" as="geometry" />
        </mxCell>
        <mxCell id="L8fFzipgd7BgljR_K-Mj-52" value="&lt;b&gt;&lt;font style=&quot;font-size: 18px&quot;&gt;wine&lt;/font&gt;&lt;/b&gt;" style="text;html=1;align=center;verticalAlign=middle;resizable=0;points=[];autosize=1;" parent="1" vertex="1">
          <mxGeometry x="80" y="440" width="60" height="20" as="geometry" />
        </mxCell>
        <mxCell id="L8fFzipgd7BgljR_K-Mj-54" value="" style="endArrow=classic;html=1;strokeWidth=2;fillColor=#dae8fc;strokeColor=#6c8ebf;" parent="1" edge="1">
          <mxGeometry width="50" height="50" relative="1" as="geometry">
            <mxPoint x="60" y="400" as="sourcePoint" />
            <mxPoint x="60" y="550" as="targetPoint" />
          </mxGeometry>
        </mxCell>
        <mxCell id="L8fFzipgd7BgljR_K-Mj-57" value="&lt;font color=&quot;#999999&quot;&gt;/// 第一次执行&lt;/font&gt;" style="text;html=1;align=left;verticalAlign=middle;resizable=0;points=[];autosize=1;" parent="1" vertex="1">
          <mxGeometry x="260" y="200" width="90" height="20" as="geometry" />
        </mxCell>
        <mxCell id="L8fFzipgd7BgljR_K-Mj-59" value="&lt;font color=&quot;#999999&quot;&gt;/// 第二次执行时不会用preloader了&lt;/font&gt;" style="text;html=1;align=left;verticalAlign=middle;resizable=0;points=[];autosize=1;" parent="1" vertex="1">
          <mxGeometry x="160" y="590" width="200" height="20" as="geometry" />
        </mxCell>
        <mxCell id="L8fFzipgd7BgljR_K-Mj-61" value="&lt;b&gt;p__wine_set_unix_funcs&lt;/b&gt;" style="rounded=0;whiteSpace=wrap;html=1;" parent="1" vertex="1">
          <mxGeometry x="200" y="830" width="160" height="20" as="geometry" />
        </mxCell>
        <mxCell id="L8fFzipgd7BgljR_K-Mj-62" value="&lt;b&gt;__wine_set_unix_funcs&lt;/b&gt;" style="rounded=0;whiteSpace=wrap;html=1;" parent="1" vertex="1">
          <mxGeometry x="200" y="850" width="160" height="20" as="geometry" />
        </mxCell>
        <mxCell id="L8fFzipgd7BgljR_K-Mj-63" value="int version" style="rounded=0;whiteSpace=wrap;html=1;fillColor=#f5f5f5;strokeColor=#666666;fontColor=#333333;" parent="1" vertex="1">
          <mxGeometry x="360" y="830" width="40" height="40" as="geometry" />
        </mxCell>
        <mxCell id="L8fFzipgd7BgljR_K-Mj-64" value="const struct unix_funcs *funcs" style="rounded=0;whiteSpace=wrap;html=1;fillColor=#d5e8d4;strokeColor=#82b366;" parent="1" vertex="1">
          <mxGeometry x="400" y="830" width="80" height="40" as="geometry" />
        </mxCell>
        <mxCell id="L8fFzipgd7BgljR_K-Mj-67" value="dlls/ntdll/loader.c: 4053~4057" style="text;html=1;align=left;verticalAlign=middle;resizable=0;points=[];autosize=1;" parent="1" vertex="1">
          <mxGeometry x="200" y="810" width="170" height="20" as="geometry" />
        </mxCell>
        <mxCell id="L8fFzipgd7BgljR_K-Mj-68" value="&lt;div style=&quot;text-align: left&quot;&gt;&lt;span style=&quot;color: rgb(153 , 153 , 153)&quot;&gt;/// 全局变量funcs，&lt;/span&gt;&lt;span style=&quot;color: rgb(153 , 153 , 153)&quot;&gt;相当于&lt;/span&gt;&lt;/div&gt;&lt;div style=&quot;text-align: left&quot;&gt;&lt;span style=&quot;color: rgb(153 , 153 , 153)&quot;&gt;/// ntdll.dll的&lt;/span&gt;&lt;span style=&quot;color: rgb(153 , 153 , 153)&quot;&gt;所有函数的&lt;/span&gt;&lt;/div&gt;&lt;div style=&quot;text-align: left&quot;&gt;&lt;span style=&quot;color: rgb(153 , 153 , 153)&quot;&gt;/// linux实现，&lt;/span&gt;&lt;span style=&quot;color: rgb(153 , 153 , 153)&quot;&gt;由这个结构&lt;/span&gt;&lt;/div&gt;&lt;div style=&quot;text-align: left&quot;&gt;&lt;span style=&quot;color: rgb(153 , 153 , 153)&quot;&gt;/// 暴露给c程序&lt;/span&gt;&lt;/div&gt;" style="text;html=1;align=center;verticalAlign=middle;resizable=0;points=[];autosize=1;" parent="1" vertex="1">
          <mxGeometry x="480" y="830" width="150" height="60" as="geometry" />
        </mxCell>
        <mxCell id="L8fFzipgd7BgljR_K-Mj-69" value="&lt;b&gt;__wine_process_init&lt;/b&gt;" style="rounded=0;whiteSpace=wrap;html=1;" parent="1" vertex="1">
          <mxGeometry x="240" y="890" width="120" height="20" as="geometry" />
        </mxCell>
        <mxCell id="L8fFzipgd7BgljR_K-Mj-70" value="dlls/ntdll/loader.c: 3915~4047" style="text;html=1;align=left;verticalAlign=middle;resizable=0;points=[];autosize=1;" parent="1" vertex="1">
          <mxGeometry x="240" y="870" width="170" height="20" as="geometry" />
        </mxCell>
        <mxCell id="L8fFzipgd7BgljR_K-Mj-71" value="&lt;b&gt;load_ntdll&lt;/b&gt;" style="rounded=0;whiteSpace=wrap;html=1;" parent="1" vertex="1">
          <mxGeometry x="160" y="620" width="60" height="20" as="geometry" />
        </mxCell>
        <mxCell id="L8fFzipgd7BgljR_K-Mj-73" value="dlls/ntdll/unix/loader.c: 1299~1319" style="text;html=1;align=left;verticalAlign=middle;resizable=0;points=[];autosize=1;" parent="1" vertex="1">
          <mxGeometry x="160" y="600" width="200" height="20" as="geometry" />
        </mxCell>
        <mxCell id="L8fFzipgd7BgljR_K-Mj-74" value="&lt;font color=&quot;#6c8ebf&quot;&gt;add-symbol-file &lt;/font&gt;&lt;font color=&quot;#d79b00&quot;&gt;dlls/ntdll/ntdll.dll.so&lt;/font&gt;" style="endArrow=none;dashed=1;html=1;strokeWidth=1;fillColor=#dae8fc;strokeColor=#6c8ebf;" parent="1" edge="1">
          <mxGeometry width="50" height="50" relative="1" as="geometry">
            <mxPoint x="60" y="650" as="sourcePoint" />
            <mxPoint x="340" y="650" as="targetPoint" />
          </mxGeometry>
        </mxCell>
        <mxCell id="L8fFzipgd7BgljR_K-Mj-75" value="" style="endArrow=none;html=1;strokeWidth=4;fillColor=#d5e8d4;strokeColor=#82b366;" parent="1" edge="1">
          <mxGeometry width="50" height="50" relative="1" as="geometry">
            <mxPoint x="50" y="260" as="sourcePoint" />
            <mxPoint x="50" y="160" as="targetPoint" />
          </mxGeometry>
        </mxCell>
        <mxCell id="L8fFzipgd7BgljR_K-Mj-76" value="&lt;b&gt;&lt;font color=&quot;#999999&quot;&gt;动态链接库&lt;/font&gt;&lt;/b&gt;" style="text;html=1;align=left;verticalAlign=middle;resizable=0;points=[];autosize=1;rotation=-90;" parent="1" vertex="1">
          <mxGeometry y="40" width="80" height="20" as="geometry" />
        </mxCell>
        <mxCell id="L8fFzipgd7BgljR_K-Mj-77" value="&lt;font style=&quot;font-size: 8px&quot; color=&quot;#82b366&quot;&gt;&lt;b&gt;ntdll.so&lt;/b&gt;&lt;/font&gt;" style="text;html=1;align=left;verticalAlign=middle;resizable=0;points=[];autosize=1;rotation=-90;" parent="1" vertex="1">
          <mxGeometry x="30" y="110" width="40" height="20" as="geometry" />
        </mxCell>
        <mxCell id="L8fFzipgd7BgljR_K-Mj-78" value="" style="endArrow=none;html=1;strokeWidth=2;fillColor=#d5e8d4;strokeColor=#82b366;" parent="1" edge="1">
          <mxGeometry width="50" height="50" relative="1" as="geometry">
            <mxPoint x="50" y="2230" as="sourcePoint" />
            <mxPoint x="50" y="540" as="targetPoint" />
          </mxGeometry>
        </mxCell>
        <mxCell id="L8fFzipgd7BgljR_K-Mj-79" value="" style="endArrow=none;html=1;strokeWidth=2;fillColor=#ffe6cc;strokeColor=#d79b00;" parent="1" edge="1">
          <mxGeometry width="50" height="50" relative="1" as="geometry">
            <mxPoint x="40" y="2230" as="sourcePoint" />
            <mxPoint x="40" y="640" as="targetPoint" />
          </mxGeometry>
        </mxCell>
        <mxCell id="L8fFzipgd7BgljR_K-Mj-80" value="&lt;font style=&quot;font-size: 8px&quot; color=&quot;#d79b00&quot;&gt;&lt;b&gt;ntdll.dll.so&lt;/b&gt;&lt;/font&gt;" style="text;html=1;align=left;verticalAlign=middle;resizable=0;points=[];autosize=1;rotation=-90;" parent="1" vertex="1">
          <mxGeometry x="10" y="600" width="60" height="20" as="geometry" />
        </mxCell>
        <mxCell id="L8fFzipgd7BgljR_K-Mj-85" value="" style="endArrow=none;html=1;strokeWidth=4;fillColor=#d5e8d4;strokeColor=#82b366;" parent="1" edge="1">
          <mxGeometry width="50" height="50" relative="1" as="geometry">
            <mxPoint x="50" y="840" as="sourcePoint" />
            <mxPoint x="50" y="570" as="targetPoint" />
          </mxGeometry>
        </mxCell>
        <mxCell id="L8fFzipgd7BgljR_K-Mj-86" value="" style="endArrow=none;html=1;strokeWidth=4;fillColor=#ffe6cc;strokeColor=#d79b00;" parent="1" edge="1">
          <mxGeometry width="50" height="50" relative="1" as="geometry">
            <mxPoint x="40" y="1050" as="sourcePoint" />
            <mxPoint x="40" y="840" as="targetPoint" />
          </mxGeometry>
        </mxCell>
        <mxCell id="L8fFzipgd7BgljR_K-Mj-87" value="" style="endArrow=none;html=1;strokeWidth=2;fillColor=#d5e8d4;strokeColor=#82b366;" parent="1" edge="1">
          <mxGeometry width="50" height="50" relative="1" as="geometry">
            <mxPoint x="50" y="260" as="sourcePoint" />
            <mxPoint x="50" y="140" as="targetPoint" />
          </mxGeometry>
        </mxCell>
        <mxCell id="L8fFzipgd7BgljR_K-Mj-88" value="" style="endArrow=classic;html=1;strokeWidth=2;fillColor=#dae8fc;strokeColor=#6c8ebf;" parent="1" edge="1">
          <mxGeometry width="50" height="50" relative="1" as="geometry">
            <mxPoint x="60" y="550" as="sourcePoint" />
            <mxPoint x="60" y="650" as="targetPoint" />
          </mxGeometry>
        </mxCell>
        <mxCell id="L8fFzipgd7BgljR_K-Mj-89" value="&lt;b&gt;init_user_process_params&lt;/b&gt;" style="rounded=0;whiteSpace=wrap;html=1;" parent="1" vertex="1">
          <mxGeometry x="280" y="930" width="160" height="20" as="geometry" />
        </mxCell>
        <mxCell id="L8fFzipgd7BgljR_K-Mj-90" value="3965: dlls/ntdll/env.c: 1240~1342" style="text;html=1;align=left;verticalAlign=middle;resizable=0;points=[];autosize=1;" parent="1" vertex="1">
          <mxGeometry x="280" y="910" width="190" height="20" as="geometry" />
        </mxCell>
        <mxCell id="L8fFzipgd7BgljR_K-Mj-92" value="&lt;b&gt;run_wineboot&lt;/b&gt;" style="rounded=0;whiteSpace=wrap;html=1;" parent="1" vertex="1">
          <mxGeometry x="320" y="970" width="80" height="20" as="geometry" />
        </mxCell>
        <mxCell id="L8fFzipgd7BgljR_K-Mj-95" value="1282: dlls/ntdll/env.c: 1164~1231" style="text;html=1;align=left;verticalAlign=middle;resizable=0;points=[];autosize=1;" parent="1" vertex="1">
          <mxGeometry x="320" y="950" width="190" height="20" as="geometry" />
        </mxCell>
        <mxCell id="L8fFzipgd7BgljR_K-Mj-96" value="&lt;b&gt;server_init_process&lt;/b&gt;" style="rounded=0;whiteSpace=wrap;html=1;" parent="1" vertex="1">
          <mxGeometry x="200" y="710" width="120" height="20" as="geometry" />
        </mxCell>
        <mxCell id="L8fFzipgd7BgljR_K-Mj-97" value="dlls/ntdll/unix/server.c: 1393~1448" style="text;html=1;align=left;verticalAlign=middle;resizable=0;points=[];autosize=1;" parent="1" vertex="1">
          <mxGeometry x="200" y="690" width="200" height="20" as="geometry" />
        </mxCell>
        <mxCell id="L8fFzipgd7BgljR_K-Mj-98" value="&lt;b&gt;server_connect&lt;/b&gt;" style="rounded=0;whiteSpace=wrap;html=1;" parent="1" vertex="1">
          <mxGeometry x="240" y="750" width="100" height="20" as="geometry" />
        </mxCell>
        <mxCell id="L8fFzipgd7BgljR_K-Mj-99" value="&lt;font color=&quot;#999999&quot;&gt;/// 创建并连接&lt;/font&gt;&lt;span style=&quot;color: rgb(153 , 153 , 153)&quot;&gt;wine-server进程&lt;/span&gt;" style="text;html=1;align=left;verticalAlign=middle;resizable=0;points=[];autosize=1;" parent="1" vertex="1">
          <mxGeometry x="340" y="750" width="170" height="20" as="geometry" />
        </mxCell>
        <mxCell id="L8fFzipgd7BgljR_K-Mj-100" value="dlls/ntdll/unix/server.c: 1233~1304" style="text;html=1;align=left;verticalAlign=middle;resizable=0;points=[];autosize=1;" parent="1" vertex="1">
          <mxGeometry x="240" y="730" width="200" height="20" as="geometry" />
        </mxCell>
        <mxCell id="L8fFzipgd7BgljR_K-Mj-101" value="&lt;b&gt;start_server&lt;/b&gt;" style="rounded=0;whiteSpace=wrap;html=1;" parent="1" vertex="1">
          <mxGeometry x="280" y="790" width="80" height="20" as="geometry" />
        </mxCell>
        <mxCell id="L8fFzipgd7BgljR_K-Mj-102" value="1244: dlls/ntdll/unix/loader.c: 567~590" style="text;html=1;align=left;verticalAlign=middle;resizable=0;points=[];autosize=1;" parent="1" vertex="1">
          <mxGeometry x="280" y="770" width="220" height="20" as="geometry" />
        </mxCell>
        <mxCell id="L8fFzipgd7BgljR_K-Mj-103" value="BOOL debug" style="rounded=0;whiteSpace=wrap;html=1;fillColor=#f5f5f5;strokeColor=#666666;fontColor=#333333;" parent="1" vertex="1">
          <mxGeometry x="360" y="790" width="80" height="20" as="geometry" />
        </mxCell>
        <mxCell id="L8fFzipgd7BgljR_K-Mj-104" value="" style="endArrow=none;html=1;strokeWidth=1;" parent="1" edge="1">
          <mxGeometry width="50" height="50" relative="1" as="geometry">
            <mxPoint x="770" y="2280" as="sourcePoint" />
            <mxPoint x="770" y="30" as="targetPoint" />
          </mxGeometry>
        </mxCell>
        <mxCell id="L8fFzipgd7BgljR_K-Mj-105" value="&lt;b&gt;fork+exec&lt;/b&gt;" style="endArrow=classic;html=1;strokeWidth=2;fillColor=#f5f5f5;strokeColor=#666666;" parent="1" source="L8fFzipgd7BgljR_K-Mj-103" target="L8fFzipgd7BgljR_K-Mj-106" edge="1">
          <mxGeometry width="50" height="50" relative="1" as="geometry">
            <mxPoint x="620" y="840" as="sourcePoint" />
            <mxPoint x="540" y="799" as="targetPoint" />
          </mxGeometry>
        </mxCell>
        <mxCell id="L8fFzipgd7BgljR_K-Mj-106" value="&lt;b&gt;&lt;font style=&quot;font-size: 18px&quot;&gt;wine-server&lt;/font&gt;&lt;/b&gt;" style="rounded=0;whiteSpace=wrap;html=1;" parent="1" vertex="1">
          <mxGeometry x="790" y="780" width="60" height="40" as="geometry" />
        </mxCell>
        <mxCell id="hH1P5SE95vpx9j7kM1k2-1" value="&lt;b&gt;NtResumeThread&lt;/b&gt;" style="rounded=0;whiteSpace=wrap;html=1;" parent="1" vertex="1">
          <mxGeometry x="360" y="1100" width="100" height="30" as="geometry" />
        </mxCell>
        <mxCell id="hH1P5SE95vpx9j7kM1k2-2" value="1218: dlls/ntdll/unix/thread.c: 478~491" style="text;html=1;align=left;verticalAlign=middle;resizable=0;points=[];autosize=1;" parent="1" vertex="1">
          <mxGeometry x="360" y="1080" width="220" height="20" as="geometry" />
        </mxCell>
        <mxCell id="hH1P5SE95vpx9j7kM1k2-12" style="edgeStyle=orthogonalEdgeStyle;rounded=0;orthogonalLoop=1;jettySize=auto;html=1;strokeWidth=2;fillColor=#fff2cc;strokeColor=#d6b656;" parent="1" source="hH1P5SE95vpx9j7kM1k2-3" target="hH1P5SE95vpx9j7kM1k2-6" edge="1">
          <mxGeometry relative="1" as="geometry">
            <Array as="points">
              <mxPoint x="490" y="1140" />
              <mxPoint x="540" y="1140" />
            </Array>
          </mxGeometry>
        </mxCell>
        <mxCell id="hH1P5SE95vpx9j7kM1k2-3" value="HANDLE handle" style="rounded=0;whiteSpace=wrap;html=1;fillColor=#fff2cc;strokeColor=#d6b656;" parent="1" vertex="1">
          <mxGeometry x="460" y="1100" width="60" height="30" as="geometry" />
        </mxCell>
        <mxCell id="hH1P5SE95vpx9j7kM1k2-4" value="ULONG *count" style="rounded=0;whiteSpace=wrap;html=1;fillColor=#f5f5f5;strokeColor=#666666;fontColor=#333333;" parent="1" vertex="1">
          <mxGeometry x="520" y="1100" width="60" height="30" as="geometry" />
        </mxCell>
        <mxCell id="hH1P5SE95vpx9j7kM1k2-5" value="&lt;b&gt;wine_server_call&lt;/b&gt;" style="rounded=0;whiteSpace=wrap;html=1;" parent="1" vertex="1">
          <mxGeometry x="400" y="1150" width="100" height="20" as="geometry" />
        </mxCell>
        <mxCell id="hH1P5SE95vpx9j7kM1k2-13" style="edgeStyle=orthogonalEdgeStyle;rounded=0;orthogonalLoop=1;jettySize=auto;html=1;strokeWidth=2;fillColor=#ffe6cc;strokeColor=#d79b00;" parent="1" source="hH1P5SE95vpx9j7kM1k2-6" target="hH1P5SE95vpx9j7kM1k2-11" edge="1">
          <mxGeometry relative="1" as="geometry">
            <Array as="points">
              <mxPoint x="540" y="1180" />
              <mxPoint x="600" y="1180" />
            </Array>
          </mxGeometry>
        </mxCell>
        <mxCell id="hH1P5SE95vpx9j7kM1k2-6" value="void *req_ptr" style="rounded=0;whiteSpace=wrap;html=1;fillColor=#ffe6cc;strokeColor=#d79b00;" parent="1" vertex="1">
          <mxGeometry x="500" y="1150" width="80" height="20" as="geometry" />
        </mxCell>
        <mxCell id="hH1P5SE95vpx9j7kM1k2-7" value="" style="verticalLabelPosition=bottom;verticalAlign=top;html=1;shape=mxgraph.basic.8_point_star;fillColor=#f8cecc;strokeColor=#b85450;strokeWidth=2;" parent="1" vertex="1">
          <mxGeometry x="410" y="1190" width="20" height="20" as="geometry" />
        </mxCell>
        <mxCell id="hH1P5SE95vpx9j7kM1k2-8" value="dlls/ntdll/unix/server.c:270~275" style="text;html=1;align=left;verticalAlign=middle;resizable=0;points=[];autosize=1;" parent="1" vertex="1">
          <mxGeometry x="440" y="1170" width="180" height="20" as="geometry" />
        </mxCell>
        <mxCell id="hH1P5SE95vpx9j7kM1k2-9" value="&lt;b&gt;server_call_unlocked&lt;/b&gt;" style="rounded=0;whiteSpace=wrap;html=1;" parent="1" vertex="1">
          <mxGeometry x="440" y="1190" width="120" height="20" as="geometry" />
        </mxCell>
        <mxCell id="hH1P5SE95vpx9j7kM1k2-10" value="dlls/ntdll/unix/server.c: 284~292" style="text;html=1;align=left;verticalAlign=middle;resizable=0;points=[];autosize=1;" parent="1" vertex="1">
          <mxGeometry x="400" y="1130" width="180" height="20" as="geometry" />
        </mxCell>
        <mxCell id="hH1P5SE95vpx9j7kM1k2-11" value="void *req_ptr" style="rounded=0;whiteSpace=wrap;html=1;fillColor=#ffe6cc;strokeColor=#d79b00;" parent="1" vertex="1">
          <mxGeometry x="560" y="1190" width="80" height="20" as="geometry" />
        </mxCell>
        <mxCell id="hH1P5SE95vpx9j7kM1k2-14" value="&lt;b&gt;RtlCreateUserProcess&lt;/b&gt;" style="rounded=0;whiteSpace=wrap;html=1;strokeWidth=1;" parent="1" vertex="1">
          <mxGeometry x="360" y="1010" width="140" height="20" as="geometry" />
        </mxCell>
        <mxCell id="hH1P5SE95vpx9j7kM1k2-15" value="... *path" style="rounded=0;whiteSpace=wrap;html=1;strokeWidth=1;fillColor=#f5f5f5;strokeColor=#666666;fontColor=#333333;" parent="1" vertex="1">
          <mxGeometry x="500" y="1010" width="60" height="20" as="geometry" />
        </mxCell>
        <mxCell id="hH1P5SE95vpx9j7kM1k2-16" value="..." style="rounded=0;whiteSpace=wrap;html=1;strokeWidth=1;fillColor=#f5f5f5;strokeColor=#666666;fontColor=#333333;" parent="1" vertex="1">
          <mxGeometry x="560" y="1010" width="20" height="20" as="geometry" />
        </mxCell>
        <mxCell id="hH1P5SE95vpx9j7kM1k2-26" value="&amp;amp;info-&amp;gt;Thread" style="edgeStyle=orthogonalEdgeStyle;rounded=0;orthogonalLoop=1;jettySize=auto;html=1;strokeWidth=2;fillColor=#fff2cc;strokeColor=#d6b656;" parent="1" source="hH1P5SE95vpx9j7kM1k2-17" target="hH1P5SE95vpx9j7kM1k2-23" edge="1">
          <mxGeometry relative="1" as="geometry">
            <Array as="points">
              <mxPoint x="600" y="1040" />
              <mxPoint x="710" y="1040" />
            </Array>
          </mxGeometry>
        </mxCell>
        <mxCell id="hH1P5SE95vpx9j7kM1k2-27" style="edgeStyle=orthogonalEdgeStyle;rounded=0;orthogonalLoop=1;jettySize=auto;html=1;strokeWidth=2;fillColor=#f5f5f5;strokeColor=#666666;" parent="1" source="hH1P5SE95vpx9j7kM1k2-17" target="hH1P5SE95vpx9j7kM1k2-22" edge="1">
          <mxGeometry relative="1" as="geometry" />
        </mxCell>
        <mxCell id="hH1P5SE95vpx9j7kM1k2-17" value="... *info" style="rounded=0;whiteSpace=wrap;html=1;strokeWidth=1;fillColor=#f5f5f5;strokeColor=#666666;fontColor=#333333;" parent="1" vertex="1">
          <mxGeometry x="580" y="1010" width="40" height="20" as="geometry" />
        </mxCell>
        <mxCell id="hH1P5SE95vpx9j7kM1k2-18" value="wineboot的windows路径" style="endArrow=classic;html=1;strokeWidth=2;fillColor=#f5f5f5;strokeColor=#666666;" parent="1" target="hH1P5SE95vpx9j7kM1k2-15" edge="1">
          <mxGeometry x="-1" width="50" height="50" relative="1" as="geometry">
            <mxPoint x="530" y="980" as="sourcePoint" />
            <mxPoint x="600" y="940" as="targetPoint" />
            <mxPoint as="offset" />
          </mxGeometry>
        </mxCell>
        <mxCell id="hH1P5SE95vpx9j7kM1k2-19" value="&lt;b&gt;NtCreateUserProcess&lt;/b&gt;" style="rounded=0;whiteSpace=wrap;html=1;strokeWidth=1;" parent="1" vertex="1">
          <mxGeometry x="400" y="1050" width="120" height="30" as="geometry" />
        </mxCell>
        <mxCell id="hH1P5SE95vpx9j7kM1k2-21" value="1207: dlls/ntdll/process.c: 272~322" style="text;html=1;align=left;verticalAlign=middle;resizable=0;points=[];autosize=1;" parent="1" vertex="1">
          <mxGeometry x="360" y="990" width="200" height="20" as="geometry" />
        </mxCell>
        <mxCell id="hH1P5SE95vpx9j7kM1k2-22" value="HANDLE *process_handle_ptr" style="rounded=0;whiteSpace=wrap;html=1;strokeWidth=1;" parent="1" vertex="1">
          <mxGeometry x="520" y="1050" width="120" height="30" as="geometry" />
        </mxCell>
        <mxCell id="hH1P5SE95vpx9j7kM1k2-23" value="HANDLE *thread_handle_ptr" style="rounded=0;whiteSpace=wrap;html=1;strokeWidth=1;fillColor=#fff2cc;strokeColor=#d6b656;" parent="1" vertex="1">
          <mxGeometry x="640" y="1050" width="120" height="30" as="geometry" />
        </mxCell>
        <mxCell id="hH1P5SE95vpx9j7kM1k2-24" value="317: dlls/ntdll/unix/process.c: 767~979" style="text;html=1;align=left;verticalAlign=middle;resizable=0;points=[];autosize=1;" parent="1" vertex="1">
          <mxGeometry x="400" y="1030" width="220" height="20" as="geometry" />
        </mxCell>
        <mxCell id="hH1P5SE95vpx9j7kM1k2-29" value="" style="endArrow=none;html=1;strokeWidth=4;fillColor=#d5e8d4;strokeColor=#82b366;" parent="1" edge="1">
          <mxGeometry width="50" height="50" relative="1" as="geometry">
            <mxPoint x="50" y="1850" as="sourcePoint" />
            <mxPoint x="50" y="1050" as="targetPoint" />
          </mxGeometry>
        </mxCell>
        <mxCell id="L8fFzipgd7BgljR_K-Mj-51" value="1834：dlls/ntdll/unix/loader.c: 1551~1567" style="text;html=1;align=left;verticalAlign=middle;resizable=0;points=[];autosize=1;" parent="1" vertex="1">
          <mxGeometry x="160" y="650" width="240" height="20" as="geometry" />
        </mxCell>
        <mxCell id="uO-6_LORsdthiIH6uX4f-2" value="&lt;b&gt;server_init_process_done&lt;/b&gt;" style="rounded=0;whiteSpace=wrap;html=1;" parent="1" vertex="1">
          <mxGeometry x="280" y="1580" width="160" height="20" as="geometry" />
        </mxCell>
        <mxCell id="uO-6_LORsdthiIH6uX4f-3" value="4046: dlls/ntdll/unix/server.c: 1455~1487" style="text;html=1;align=left;verticalAlign=middle;resizable=0;points=[];autosize=1;" parent="1" vertex="1">
          <mxGeometry x="280" y="1560" width="230" height="20" as="geometry" />
        </mxCell>
        <mxCell id="b5JLD9fiZatqp3Hv4nZQ-57" style="edgeStyle=orthogonalEdgeStyle;rounded=0;orthogonalLoop=1;jettySize=auto;html=1;strokeWidth=2;fillColor=#f8cecc;strokeColor=#b85450;" parent="1" source="uO-6_LORsdthiIH6uX4f-4" target="uO-6_LORsdthiIH6uX4f-11" edge="1">
          <mxGeometry relative="1" as="geometry">
            <Array as="points">
              <mxPoint x="470" y="1610" />
              <mxPoint x="600" y="1610" />
            </Array>
          </mxGeometry>
        </mxCell>
        <mxCell id="uO-6_LORsdthiIH6uX4f-4" value="void *relay" style="rounded=0;whiteSpace=wrap;html=1;fillColor=#f8cecc;strokeColor=#b85450;" parent="1" vertex="1">
          <mxGeometry x="440" y="1580" width="60" height="20" as="geometry" />
        </mxCell>
        <mxCell id="uO-6_LORsdthiIH6uX4f-5" value="&lt;b&gt;&lt;font color=&quot;#4c0099&quot;&gt;signal_start_thread&lt;/font&gt;&lt;/b&gt;" style="rounded=0;whiteSpace=wrap;html=1;" parent="1" vertex="1">
          <mxGeometry x="320" y="1620" width="120" height="20" as="geometry" />
        </mxCell>
        <mxCell id="uO-6_LORsdthiIH6uX4f-6" value="1486:&amp;nbsp;dlls/ntdll/unix/signal_i386.c: 2305~2338" style="text;html=1;align=left;verticalAlign=middle;resizable=0;points=[];autosize=1;" parent="1" vertex="1">
          <mxGeometry x="320" y="1600" width="260" height="20" as="geometry" />
        </mxCell>
        <mxCell id="b5JLD9fiZatqp3Hv4nZQ-36" style="edgeStyle=orthogonalEdgeStyle;rounded=0;orthogonalLoop=1;jettySize=auto;html=1;strokeWidth=2;fillColor=#e1d5e7;strokeColor=#9673a6;" parent="1" source="uO-6_LORsdthiIH6uX4f-8" target="Tomk_LjzMx839LBk0OIq-8" edge="1">
          <mxGeometry relative="1" as="geometry">
            <Array as="points">
              <mxPoint x="460" y="1650" />
              <mxPoint x="500" y="1650" />
            </Array>
          </mxGeometry>
        </mxCell>
        <mxCell id="uO-6_LORsdthiIH6uX4f-8" value="entry" style="rounded=0;whiteSpace=wrap;html=1;fillColor=#e1d5e7;strokeColor=#9673a6;" parent="1" vertex="1">
          <mxGeometry x="440" y="1620" width="40" height="20" as="geometry" />
        </mxCell>
        <mxCell id="uO-6_LORsdthiIH6uX4f-9" value="ped" style="rounded=0;whiteSpace=wrap;html=1;fillColor=#f5f5f5;strokeColor=#666666;fontColor=#333333;" parent="1" vertex="1">
          <mxGeometry x="480" y="1620" width="40" height="20" as="geometry" />
        </mxCell>
        <mxCell id="uO-6_LORsdthiIH6uX4f-10" value="suspend" style="rounded=0;whiteSpace=wrap;html=1;fillColor=#f5f5f5;strokeColor=#666666;fontColor=#333333;" parent="1" vertex="1">
          <mxGeometry x="520" y="1620" width="60" height="20" as="geometry" />
        </mxCell>
        <mxCell id="uO-6_LORsdthiIH6uX4f-11" value="relay" style="rounded=0;whiteSpace=wrap;html=1;fillColor=#f8cecc;strokeColor=#b85450;" parent="1" vertex="1">
          <mxGeometry x="580" y="1620" width="40" height="20" as="geometry" />
        </mxCell>
        <mxCell id="uO-6_LORsdthiIH6uX4f-12" value="NtCurrentTeb()" style="rounded=0;whiteSpace=wrap;html=1;fillColor=#f5f5f5;strokeColor=#666666;fontColor=#333333;" parent="1" vertex="1">
          <mxGeometry x="620" y="1620" width="100" height="20" as="geometry" />
        </mxCell>
        <mxCell id="uO-6_LORsdthiIH6uX4f-14" value="&lt;b&gt;NtContinue&lt;/b&gt;" style="rounded=0;whiteSpace=wrap;html=1;" parent="1" vertex="1">
          <mxGeometry x="360" y="1900" width="80" height="20" as="geometry" />
        </mxCell>
        <mxCell id="uO-6_LORsdthiIH6uX4f-15" value="dlls/ntdll/unix/thread.c: 542~547" style="text;html=1;align=left;verticalAlign=middle;resizable=0;points=[];autosize=1;" parent="1" vertex="1">
          <mxGeometry x="360" y="1880" width="180" height="20" as="geometry" />
        </mxCell>
        <mxCell id="b5JLD9fiZatqp3Hv4nZQ-37" style="edgeStyle=orthogonalEdgeStyle;rounded=0;orthogonalLoop=1;jettySize=auto;html=1;strokeWidth=2;fillColor=#d5e8d4;strokeColor=#82b366;" parent="1" source="uO-6_LORsdthiIH6uX4f-16" target="uO-6_LORsdthiIH6uX4f-21" edge="1">
          <mxGeometry relative="1" as="geometry">
            <Array as="points">
              <mxPoint x="500" y="1930" />
              <mxPoint x="670" y="1930" />
            </Array>
          </mxGeometry>
        </mxCell>
        <mxCell id="uO-6_LORsdthiIH6uX4f-16" value="CONTEXT *context" style="rounded=0;whiteSpace=wrap;html=1;fillColor=#d5e8d4;strokeColor=#82b366;" parent="1" vertex="1">
          <mxGeometry x="440" y="1900" width="120" height="20" as="geometry" />
        </mxCell>
        <mxCell id="uO-6_LORsdthiIH6uX4f-17" value="BOOLEAN alertable" style="rounded=0;whiteSpace=wrap;html=1;fillColor=#f5f5f5;strokeColor=#666666;fontColor=#333333;" parent="1" vertex="1">
          <mxGeometry x="560" y="1900" width="120" height="20" as="geometry" />
        </mxCell>
        <mxCell id="uO-6_LORsdthiIH6uX4f-18" value="&lt;b&gt;NtSetContextThread&lt;/b&gt;" style="rounded=0;whiteSpace=wrap;html=1;" parent="1" vertex="1">
          <mxGeometry x="400" y="1940" width="120" height="30" as="geometry" />
        </mxCell>
        <mxCell id="uO-6_LORsdthiIH6uX4f-19" value="546:&amp;nbsp;dlls/ntdll/unix/signal_i386.c: 1100~1151" style="text;html=1;align=left;verticalAlign=middle;resizable=0;points=[];autosize=1;" parent="1" vertex="1">
          <mxGeometry x="400" y="1920" width="250" height="20" as="geometry" />
        </mxCell>
        <mxCell id="uO-6_LORsdthiIH6uX4f-20" value="HANDLE handle" style="rounded=0;whiteSpace=wrap;html=1;fillColor=#f5f5f5;strokeColor=#666666;fontColor=#333333;" parent="1" vertex="1">
          <mxGeometry x="520" y="1940" width="100" height="30" as="geometry" />
        </mxCell>
        <mxCell id="b5JLD9fiZatqp3Hv4nZQ-38" style="edgeStyle=orthogonalEdgeStyle;rounded=0;orthogonalLoop=1;jettySize=auto;html=1;strokeWidth=2;fillColor=#d5e8d4;strokeColor=#82b366;" parent="1" source="uO-6_LORsdthiIH6uX4f-21" target="uO-6_LORsdthiIH6uX4f-26" edge="1">
          <mxGeometry relative="1" as="geometry">
            <Array as="points">
              <mxPoint x="670" y="1980" />
              <mxPoint x="630" y="1980" />
            </Array>
          </mxGeometry>
        </mxCell>
        <mxCell id="uO-6_LORsdthiIH6uX4f-21" value="const CONTEXT *context" style="rounded=0;whiteSpace=wrap;html=1;fillColor=#d5e8d4;strokeColor=#82b366;" parent="1" vertex="1">
          <mxGeometry x="620" y="1940" width="100" height="30" as="geometry" />
        </mxCell>
        <mxCell id="uO-6_LORsdthiIH6uX4f-22" value="&lt;b&gt;&lt;font color=&quot;#4c0099&quot;&gt;set_full_cpu_context&lt;/font&gt;&lt;/b&gt;" style="rounded=0;whiteSpace=wrap;html=1;" parent="1" vertex="1">
          <mxGeometry x="440" y="1990" width="120" height="20" as="geometry" />
        </mxCell>
        <mxCell id="uO-6_LORsdthiIH6uX4f-23" value="1139:&amp;nbsp;dlls/ntdll/unix/signal_i386.c: 883~930" style="text;html=1;align=left;verticalAlign=middle;resizable=0;points=[];autosize=1;" parent="1" vertex="1">
          <mxGeometry x="440" y="1970" width="240" height="20" as="geometry" />
        </mxCell>
        <mxCell id="b5JLD9fiZatqp3Hv4nZQ-39" style="edgeStyle=orthogonalEdgeStyle;rounded=0;orthogonalLoop=1;jettySize=auto;html=1;strokeWidth=2;fillColor=#e1d5e7;strokeColor=#9673a6;" parent="1" source="uO-6_LORsdthiIH6uX4f-26" target="uO-6_LORsdthiIH6uX4f-46" edge="1">
          <mxGeometry relative="1" as="geometry">
            <Array as="points">
              <mxPoint x="630" y="2060" />
              <mxPoint x="330" y="2060" />
            </Array>
          </mxGeometry>
        </mxCell>
        <mxCell id="uO-6_LORsdthiIH6uX4f-26" value="const CONTEXT *context" style="rounded=0;whiteSpace=wrap;html=1;fillColor=#d5e8d4;strokeColor=#82b366;" parent="1" vertex="1">
          <mxGeometry x="560" y="1990" width="140" height="20" as="geometry" />
        </mxCell>
        <mxCell id="uO-6_LORsdthiIH6uX4f-27" value="&lt;font color=&quot;#4c0099&quot;&gt;iret&lt;/font&gt;" style="rounded=0;whiteSpace=wrap;html=1;" parent="1" vertex="1">
          <mxGeometry x="480" y="2030" width="40" height="20" as="geometry" />
        </mxCell>
        <mxCell id="uO-6_LORsdthiIH6uX4f-28" value="&lt;b&gt;load_builtin_dll&lt;/b&gt;" style="rounded=0;whiteSpace=wrap;html=1;" parent="1" vertex="1">
          <mxGeometry x="320" y="1280" width="100" height="30" as="geometry" />
        </mxCell>
        <mxCell id="uO-6_LORsdthiIH6uX4f-31" value="const WCHAR *name" style="rounded=0;whiteSpace=wrap;html=1;fillColor=#f5f5f5;strokeColor=#666666;fontColor=#333333;" parent="1" vertex="1">
          <mxGeometry x="420" y="1280" width="80" height="30" as="geometry" />
        </mxCell>
        <mxCell id="uO-6_LORsdthiIH6uX4f-32" value="2363: dlls/ntdll/unix/loader.c: 1127~1189" style="text;html=1;align=left;verticalAlign=middle;resizable=0;points=[];autosize=1;" parent="1" vertex="1">
          <mxGeometry x="320" y="1260" width="230" height="20" as="geometry" />
        </mxCell>
        <mxCell id="uO-6_LORsdthiIH6uX4f-33" value="&lt;font color=&quot;#999999&quot;&gt;/// 加载kernel32.dll.so&lt;/font&gt;" style="text;html=1;align=left;verticalAlign=middle;resizable=0;points=[];autosize=1;" parent="1" vertex="1">
          <mxGeometry x="540" y="1260" width="130" height="20" as="geometry" />
        </mxCell>
        <mxCell id="uO-6_LORsdthiIH6uX4f-34" value="" style="endArrow=none;html=1;strokeWidth=2;fillColor=#f8cecc;strokeColor=#b85450;" parent="1" edge="1">
          <mxGeometry width="50" height="50" relative="1" as="geometry">
            <mxPoint x="30" y="2230" as="sourcePoint" />
            <mxPoint x="30" y="1250" as="targetPoint" />
          </mxGeometry>
        </mxCell>
        <mxCell id="uO-6_LORsdthiIH6uX4f-35" value="&lt;b&gt;LdrGetProcedureAddress&lt;/b&gt;" style="rounded=0;whiteSpace=wrap;html=1;" parent="1" vertex="1">
          <mxGeometry x="280" y="1420" width="160" height="30" as="geometry" />
        </mxCell>
        <mxCell id="uO-6_LORsdthiIH6uX4f-36" value="HMODULE module" style="rounded=0;whiteSpace=wrap;html=1;fillColor=#f5f5f5;strokeColor=#666666;fontColor=#333333;" parent="1" vertex="1">
          <mxGeometry x="440" y="1420" width="60" height="30" as="geometry" />
        </mxCell>
        <mxCell id="uO-6_LORsdthiIH6uX4f-37" value="const ANSI_STRING *name" style="rounded=0;whiteSpace=wrap;html=1;fillColor=#f5f5f5;strokeColor=#666666;fontColor=#333333;" parent="1" vertex="1">
          <mxGeometry x="500" y="1420" width="120" height="30" as="geometry" />
        </mxCell>
        <mxCell id="uO-6_LORsdthiIH6uX4f-38" value="ULONG ord" style="rounded=0;whiteSpace=wrap;html=1;fillColor=#f5f5f5;strokeColor=#666666;fontColor=#333333;" parent="1" vertex="1">
          <mxGeometry x="620" y="1420" width="60" height="30" as="geometry" />
        </mxCell>
        <mxCell id="uO-6_LORsdthiIH6uX4f-43" style="edgeStyle=orthogonalEdgeStyle;rounded=0;orthogonalLoop=1;jettySize=auto;html=1;strokeWidth=2;fillColor=#f8cecc;strokeColor=#b85450;" parent="1" source="uO-6_LORsdthiIH6uX4f-39" target="uO-6_LORsdthiIH6uX4f-4" edge="1">
          <mxGeometry relative="1" as="geometry">
            <Array as="points">
              <mxPoint x="710" y="1460" />
              <mxPoint x="750" y="1460" />
              <mxPoint x="750" y="1560" />
              <mxPoint x="470" y="1560" />
            </Array>
          </mxGeometry>
        </mxCell>
        <mxCell id="uO-6_LORsdthiIH6uX4f-39" value="PVOID *address" style="rounded=0;whiteSpace=wrap;html=1;fillColor=#f8cecc;strokeColor=#b85450;" parent="1" vertex="1">
          <mxGeometry x="680" y="1420" width="60" height="30" as="geometry" />
        </mxCell>
        <mxCell id="uO-6_LORsdthiIH6uX4f-40" value="3985:&amp;nbsp;dlls/ntdll/loader.c: 1712~1736" style="text;html=1;align=left;verticalAlign=middle;resizable=0;points=[];autosize=1;" parent="1" vertex="1">
          <mxGeometry x="280" y="1400" width="200" height="20" as="geometry" />
        </mxCell>
        <mxCell id="uO-6_LORsdthiIH6uX4f-41" value="&lt;font color=&quot;#999999&quot;&gt;/// 读取__wine_start_process的地址由address输出&lt;/font&gt;" style="text;html=1;align=left;verticalAlign=middle;resizable=0;points=[];autosize=1;" parent="1" vertex="1">
          <mxGeometry x="480" y="1400" width="280" height="20" as="geometry" />
        </mxCell>
        <mxCell id="uO-6_LORsdthiIH6uX4f-44" value="&lt;b&gt;&lt;font color=&quot;#4c0099&quot;&gt;__wine_start_process&lt;/font&gt;&lt;/b&gt;" style="rounded=0;whiteSpace=wrap;html=1;" parent="1" vertex="1">
          <mxGeometry x="80" y="2070" width="140" height="20" as="geometry" />
        </mxCell>
        <mxCell id="uO-6_LORsdthiIH6uX4f-45" value="dlls/kernel32/process.c: 112~120" style="text;html=1;align=left;verticalAlign=middle;resizable=0;points=[];autosize=1;" parent="1" vertex="1">
          <mxGeometry x="80" y="2050" width="190" height="20" as="geometry" />
        </mxCell>
        <mxCell id="b5JLD9fiZatqp3Hv4nZQ-35" style="edgeStyle=orthogonalEdgeStyle;rounded=0;orthogonalLoop=1;jettySize=auto;html=1;strokeWidth=2;fillColor=#e1d5e7;strokeColor=#9673a6;" parent="1" source="uO-6_LORsdthiIH6uX4f-46" target="b5JLD9fiZatqp3Hv4nZQ-5" edge="1">
          <mxGeometry relative="1" as="geometry">
            <Array as="points">
              <mxPoint x="330" y="2100" />
              <mxPoint x="310" y="2100" />
            </Array>
          </mxGeometry>
        </mxCell>
        <mxCell id="uO-6_LORsdthiIH6uX4f-46" value="LPTHREAD_START_ROUTINE entry" style="rounded=0;whiteSpace=wrap;html=1;fillColor=#e1d5e7;strokeColor=#9673a6;" parent="1" vertex="1">
          <mxGeometry x="220" y="2070" width="220" height="20" as="geometry" />
        </mxCell>
        <mxCell id="uO-6_LORsdthiIH6uX4f-47" value="PEB *peb" style="rounded=0;whiteSpace=wrap;html=1;fillColor=#f5f5f5;strokeColor=#666666;fontColor=#333333;" parent="1" vertex="1">
          <mxGeometry x="440" y="2070" width="60" height="20" as="geometry" />
        </mxCell>
        <mxCell id="uO-6_LORsdthiIH6uX4f-48" value="&lt;b&gt;&lt;font color=&quot;#4c0099&quot;&gt;call_process_entry&lt;/font&gt;&lt;/b&gt;" style="rounded=0;whiteSpace=wrap;html=1;" parent="1" vertex="1">
          <mxGeometry x="160" y="2150" width="120" height="20" as="geometry" />
        </mxCell>
        <mxCell id="b5JLD9fiZatqp3Hv4nZQ-1" value="167: dlls/kernel32/process.c: 90~110" style="text;html=1;align=left;verticalAlign=middle;resizable=0;points=[];autosize=1;" parent="1" vertex="1">
          <mxGeometry x="160" y="2130" width="210" height="20" as="geometry" />
        </mxCell>
        <mxCell id="b5JLD9fiZatqp3Hv4nZQ-2" value="PEB *peb" style="rounded=0;whiteSpace=wrap;html=1;fillColor=#f5f5f5;strokeColor=#666666;fontColor=#333333;" parent="1" vertex="1">
          <mxGeometry x="280" y="2150" width="60" height="20" as="geometry" />
        </mxCell>
        <mxCell id="b5JLD9fiZatqp3Hv4nZQ-11" style="edgeStyle=orthogonalEdgeStyle;rounded=0;orthogonalLoop=1;jettySize=auto;html=1;strokeWidth=2;fillColor=#e1d5e7;strokeColor=#9673a6;" parent="1" source="b5JLD9fiZatqp3Hv4nZQ-3" target="b5JLD9fiZatqp3Hv4nZQ-10" edge="1">
          <mxGeometry relative="1" as="geometry">
            <Array as="points">
              <mxPoint x="450" y="2180" />
              <mxPoint x="250" y="2180" />
            </Array>
          </mxGeometry>
        </mxCell>
        <mxCell id="b5JLD9fiZatqp3Hv4nZQ-3" value="LPTHREAD_START_ROUTINE entry" style="rounded=0;whiteSpace=wrap;html=1;fillColor=#e1d5e7;strokeColor=#9673a6;" parent="1" vertex="1">
          <mxGeometry x="340" y="2150" width="220" height="20" as="geometry" />
        </mxCell>
        <mxCell id="b5JLD9fiZatqp3Hv4nZQ-4" value="&lt;b&gt;start_process&lt;/b&gt;" style="rounded=0;whiteSpace=wrap;html=1;" parent="1" vertex="1">
          <mxGeometry x="120" y="2110" width="80" height="20" as="geometry" />
        </mxCell>
        <mxCell id="b5JLD9fiZatqp3Hv4nZQ-34" style="edgeStyle=orthogonalEdgeStyle;rounded=0;orthogonalLoop=1;jettySize=auto;html=1;strokeWidth=2;fillColor=#e1d5e7;strokeColor=#9673a6;" parent="1" source="b5JLD9fiZatqp3Hv4nZQ-5" target="b5JLD9fiZatqp3Hv4nZQ-3" edge="1">
          <mxGeometry relative="1" as="geometry">
            <Array as="points">
              <mxPoint x="310" y="2140" />
              <mxPoint x="450" y="2140" />
            </Array>
          </mxGeometry>
        </mxCell>
        <mxCell id="b5JLD9fiZatqp3Hv4nZQ-5" value="LPTHREAD_START_ROUTINE entry" style="rounded=0;whiteSpace=wrap;html=1;fillColor=#e1d5e7;strokeColor=#9673a6;" parent="1" vertex="1">
          <mxGeometry x="200" y="2110" width="220" height="20" as="geometry" />
        </mxCell>
        <mxCell id="b5JLD9fiZatqp3Hv4nZQ-6" value="PEB *peb" style="rounded=0;whiteSpace=wrap;html=1;fillColor=#f5f5f5;strokeColor=#666666;fontColor=#333333;" parent="1" vertex="1">
          <mxGeometry x="420" y="2110" width="60" height="20" as="geometry" />
        </mxCell>
        <mxCell id="b5JLD9fiZatqp3Hv4nZQ-7" value="dlls/kernel32/process.c: 138~175" style="text;html=1;align=left;verticalAlign=middle;resizable=0;points=[];autosize=1;" parent="1" vertex="1">
          <mxGeometry x="120" y="2090" width="190" height="20" as="geometry" />
        </mxCell>
        <mxCell id="b5JLD9fiZatqp3Hv4nZQ-9" value="&lt;font color=&quot;#4c0099&quot;&gt;call&lt;/font&gt;" style="rounded=0;whiteSpace=wrap;html=1;" parent="1" vertex="1">
          <mxGeometry x="200" y="2190" width="20" height="20" as="geometry" />
        </mxCell>
        <mxCell id="b5JLD9fiZatqp3Hv4nZQ-10" value="*12(%ebp)" style="rounded=0;whiteSpace=wrap;html=1;fillColor=#e1d5e7;strokeColor=#9673a6;" parent="1" vertex="1">
          <mxGeometry x="220" y="2190" width="60" height="20" as="geometry" />
        </mxCell>
        <mxCell id="b5JLD9fiZatqp3Hv4nZQ-12" value="&lt;b&gt;open_builtin_file&lt;/b&gt;" style="rounded=0;whiteSpace=wrap;html=1;" parent="1" vertex="1">
          <mxGeometry x="360" y="1330" width="110" height="30" as="geometry" />
        </mxCell>
        <mxCell id="b5JLD9fiZatqp3Hv4nZQ-13" value="char *name" style="rounded=0;whiteSpace=wrap;html=1;fillColor=#f5f5f5;strokeColor=#666666;fontColor=#333333;" parent="1" vertex="1">
          <mxGeometry x="470" y="1330" width="50" height="30" as="geometry" />
        </mxCell>
        <mxCell id="b5JLD9fiZatqp3Hv4nZQ-14" value="void **module" style="rounded=0;whiteSpace=wrap;html=1;fillColor=#f5f5f5;strokeColor=#666666;fontColor=#333333;" parent="1" vertex="1">
          <mxGeometry x="500" y="1280" width="60" height="30" as="geometry" />
        </mxCell>
        <mxCell id="b5JLD9fiZatqp3Hv4nZQ-15" value="pe_image_info_t *image_info" style="rounded=0;whiteSpace=wrap;html=1;fillColor=#f5f5f5;strokeColor=#666666;fontColor=#333333;" parent="1" vertex="1">
          <mxGeometry x="560" y="1280" width="100" height="30" as="geometry" />
        </mxCell>
        <mxCell id="b5JLD9fiZatqp3Hv4nZQ-16" value="void **module" style="rounded=0;whiteSpace=wrap;html=1;fillColor=#f5f5f5;strokeColor=#666666;fontColor=#333333;" parent="1" vertex="1">
          <mxGeometry x="520" y="1330" width="60" height="30" as="geometry" />
        </mxCell>
        <mxCell id="b5JLD9fiZatqp3Hv4nZQ-18" value="pe_image_info_t *image_info" style="rounded=0;whiteSpace=wrap;html=1;fillColor=#f5f5f5;strokeColor=#666666;fontColor=#333333;" parent="1" vertex="1">
          <mxGeometry x="580" y="1330" width="100" height="30" as="geometry" />
        </mxCell>
        <mxCell id="b5JLD9fiZatqp3Hv4nZQ-19" value="1159: dlls/ntdll/unix/loader.c: 1080~1120" style="text;html=1;align=left;verticalAlign=middle;resizable=0;points=[];autosize=1;" parent="1" vertex="1">
          <mxGeometry x="360" y="1310" width="230" height="20" as="geometry" />
        </mxCell>
        <mxCell id="b5JLD9fiZatqp3Hv4nZQ-20" value="&lt;b&gt;dlopen_dll&lt;/b&gt;" style="rounded=0;whiteSpace=wrap;html=1;" parent="1" vertex="1">
          <mxGeometry x="400" y="1380" width="80" height="20" as="geometry" />
        </mxCell>
        <mxCell id="b5JLD9fiZatqp3Hv4nZQ-21" value="const char *so_name" style="rounded=0;whiteSpace=wrap;html=1;fillColor=#f5f5f5;strokeColor=#666666;fontColor=#333333;" parent="1" vertex="1">
          <mxGeometry x="480" y="1380" width="120" height="20" as="geometry" />
        </mxCell>
        <mxCell id="b5JLD9fiZatqp3Hv4nZQ-22" value="1104: dlls/ntdll/unix/loader.c: 867~919" style="text;html=1;align=left;verticalAlign=middle;resizable=0;points=[];autosize=1;" parent="1" vertex="1">
          <mxGeometry x="400" y="1360" width="220" height="20" as="geometry" />
        </mxCell>
        <mxCell id="b5JLD9fiZatqp3Hv4nZQ-23" value="void **ret_module" style="rounded=0;whiteSpace=wrap;html=1;fillColor=#f5f5f5;strokeColor=#666666;fontColor=#333333;" parent="1" vertex="1">
          <mxGeometry x="600" y="1380" width="100" height="20" as="geometry" />
        </mxCell>
        <mxCell id="b5JLD9fiZatqp3Hv4nZQ-24" value="&lt;b&gt;load_builtin_dll&lt;/b&gt;" style="rounded=0;whiteSpace=wrap;html=1;" parent="1" vertex="1">
          <mxGeometry x="280" y="1230" width="100" height="30" as="geometry" />
        </mxCell>
        <mxCell id="b5JLD9fiZatqp3Hv4nZQ-25" value="LPCWSTR load_path" style="rounded=0;whiteSpace=wrap;html=1;fillColor=#f5f5f5;strokeColor=#666666;fontColor=#333333;" parent="1" vertex="1">
          <mxGeometry x="380" y="1230" width="60" height="30" as="geometry" />
        </mxCell>
        <mxCell id="b5JLD9fiZatqp3Hv4nZQ-26" value="const UNICODE_&lt;br&gt;STRING *nt_name" style="rounded=0;whiteSpace=wrap;html=1;fillColor=#f5f5f5;strokeColor=#666666;fontColor=#333333;" parent="1" vertex="1">
          <mxGeometry x="440" y="1230" width="110" height="30" as="geometry" />
        </mxCell>
        <mxCell id="b5JLD9fiZatqp3Hv4nZQ-27" value="void **module_ptr" style="rounded=0;whiteSpace=wrap;html=1;fillColor=#f5f5f5;strokeColor=#666666;fontColor=#333333;" parent="1" vertex="1">
          <mxGeometry x="550" y="1230" width="70" height="30" as="geometry" />
        </mxCell>
        <mxCell id="b5JLD9fiZatqp3Hv4nZQ-28" value="DWORD flags" style="rounded=0;whiteSpace=wrap;html=1;fillColor=#f5f5f5;strokeColor=#666666;fontColor=#333333;" parent="1" vertex="1">
          <mxGeometry x="620" y="1230" width="50" height="30" as="geometry" />
        </mxCell>
        <mxCell id="b5JLD9fiZatqp3Hv4nZQ-29" value="WINE_MODERF **pwm" style="rounded=0;whiteSpace=wrap;html=1;fillColor=#f5f5f5;strokeColor=#666666;fontColor=#333333;" parent="1" vertex="1">
          <mxGeometry x="670" y="1230" width="90" height="30" as="geometry" />
        </mxCell>
        <mxCell id="b5JLD9fiZatqp3Hv4nZQ-31" value="3979: dlls/ntdll/loader.c: 2348~2380" style="text;html=1;align=left;verticalAlign=middle;resizable=0;points=[];autosize=1;" parent="1" vertex="1">
          <mxGeometry x="280" y="1210" width="200" height="20" as="geometry" />
        </mxCell>
        <mxCell id="b5JLD9fiZatqp3Hv4nZQ-32" value="" style="endArrow=none;html=1;strokeWidth=4;fillColor=#f8cecc;strokeColor=#b85450;" parent="1" edge="1">
          <mxGeometry width="50" height="50" relative="1" as="geometry">
            <mxPoint x="30" y="2210" as="sourcePoint" />
            <mxPoint x="30" y="2070" as="targetPoint" />
          </mxGeometry>
        </mxCell>
        <mxCell id="b5JLD9fiZatqp3Hv4nZQ-33" value="&lt;font style=&quot;font-size: 8px&quot; color=&quot;#b85450&quot;&gt;&lt;b&gt;kernel32.dll.so&lt;/b&gt;&lt;/font&gt;" style="text;html=1;align=left;verticalAlign=middle;resizable=0;points=[];autosize=1;rotation=-90;" parent="1" vertex="1">
          <mxGeometry x="-7" y="1204" width="70" height="20" as="geometry" />
        </mxCell>
        <mxCell id="b5JLD9fiZatqp3Hv4nZQ-40" value="" style="endArrow=none;dashed=1;html=1;strokeWidth=2;fillColor=#f5f5f5;strokeColor=#666666;" parent="1" source="uO-6_LORsdthiIH6uX4f-1" edge="1">
          <mxGeometry width="50" height="50" relative="1" as="geometry">
            <mxPoint x="760" y="1210" as="sourcePoint" />
            <mxPoint x="760" y="1210" as="targetPoint" />
            <Array as="points">
              <mxPoint x="310" y="950" />
              <mxPoint x="310" y="1210" />
            </Array>
          </mxGeometry>
        </mxCell>
        <mxCell id="uO-6_LORsdthiIH6uX4f-1" value="&lt;font color=&quot;#999999&quot;&gt;/// 若需要的话才会执行wineboot&lt;/font&gt;" style="text;html=1;align=left;verticalAlign=middle;resizable=0;points=[];autosize=1;" parent="1" vertex="1">
          <mxGeometry x="490" y="940" width="190" height="20" as="geometry" />
        </mxCell>
        <mxCell id="b5JLD9fiZatqp3Hv4nZQ-41" value="" style="endArrow=none;dashed=1;html=1;strokeWidth=2;fillColor=#f5f5f5;strokeColor=#666666;" parent="1" target="uO-6_LORsdthiIH6uX4f-1" edge="1">
          <mxGeometry width="50" height="50" relative="1" as="geometry">
            <mxPoint x="760" y="1210" as="sourcePoint" />
            <mxPoint x="760" y="1210" as="targetPoint" />
            <Array as="points">
              <mxPoint x="760" y="950" />
            </Array>
          </mxGeometry>
        </mxCell>
        <mxCell id="b5JLD9fiZatqp3Hv4nZQ-42" value="&lt;b&gt;load_dll&lt;/b&gt;" style="rounded=0;whiteSpace=wrap;html=1;" parent="1" vertex="1">
          <mxGeometry x="280" y="1470" width="60" height="30" as="geometry" />
        </mxCell>
        <mxCell id="b5JLD9fiZatqp3Hv4nZQ-43" value="3994:&amp;nbsp;dlls/ntdll/loader.c: 2619~2748" style="text;html=1;align=left;verticalAlign=middle;resizable=0;points=[];autosize=1;" parent="1" vertex="1">
          <mxGeometry x="280" y="1450" width="200" height="20" as="geometry" />
        </mxCell>
        <mxCell id="b5JLD9fiZatqp3Hv4nZQ-44" value="const WCHAR *load_path" style="rounded=0;whiteSpace=wrap;html=1;fillColor=#f5f5f5;strokeColor=#666666;fontColor=#333333;" parent="1" vertex="1">
          <mxGeometry x="340" y="1470" width="80" height="30" as="geometry" />
        </mxCell>
        <mxCell id="b5JLD9fiZatqp3Hv4nZQ-45" value="const WCHAR *libname" style="rounded=0;whiteSpace=wrap;html=1;fillColor=#f5f5f5;strokeColor=#666666;fontColor=#333333;" parent="1" vertex="1">
          <mxGeometry x="420" y="1470" width="80" height="30" as="geometry" />
        </mxCell>
        <mxCell id="b5JLD9fiZatqp3Hv4nZQ-46" value="const WCHAR *default_ext" style="rounded=0;whiteSpace=wrap;html=1;fillColor=#f5f5f5;strokeColor=#666666;fontColor=#333333;" parent="1" vertex="1">
          <mxGeometry x="500" y="1470" width="80" height="30" as="geometry" />
        </mxCell>
        <mxCell id="b5JLD9fiZatqp3Hv4nZQ-47" value="DWORD flags" style="rounded=0;whiteSpace=wrap;html=1;fillColor=#f5f5f5;strokeColor=#666666;fontColor=#333333;" parent="1" vertex="1">
          <mxGeometry x="580" y="1470" width="60" height="30" as="geometry" />
        </mxCell>
        <mxCell id="b5JLD9fiZatqp3Hv4nZQ-48" value="WINE_MODREF **pwm" style="rounded=0;whiteSpace=wrap;html=1;fillColor=#f5f5f5;strokeColor=#666666;fontColor=#333333;" parent="1" vertex="1">
          <mxGeometry x="640" y="1470" width="100" height="30" as="geometry" />
        </mxCell>
        <mxCell id="b5JLD9fiZatqp3Hv4nZQ-49" value="&lt;font color=&quot;#999999&quot;&gt;/// 对于待执行的win程序是XXX.exe.so文件则如下，例如wine ping就是如此&lt;/font&gt;" style="text;html=1;align=left;verticalAlign=middle;resizable=0;points=[];autosize=1;" parent="1" vertex="1">
          <mxGeometry x="320" y="1500" width="410" height="20" as="geometry" />
        </mxCell>
        <mxCell id="b5JLD9fiZatqp3Hv4nZQ-51" value="&lt;b&gt;load_builtin_dll&lt;/b&gt;" style="rounded=0;whiteSpace=wrap;html=1;" parent="1" vertex="1">
          <mxGeometry x="320" y="1540" width="100" height="20" as="geometry" />
        </mxCell>
        <mxCell id="b5JLD9fiZatqp3Hv4nZQ-52" value="..." style="rounded=0;whiteSpace=wrap;html=1;fillColor=#f5f5f5;strokeColor=#666666;fontColor=#333333;" parent="1" vertex="1">
          <mxGeometry x="420" y="1540" width="20" height="20" as="geometry" />
        </mxCell>
        <mxCell id="b5JLD9fiZatqp3Hv4nZQ-53" value="3979: dlls/ntdll/loader.c: 2348~2380" style="text;html=1;align=left;verticalAlign=middle;resizable=0;points=[];autosize=1;" parent="1" vertex="1">
          <mxGeometry x="320" y="1520" width="200" height="20" as="geometry" />
        </mxCell>
        <mxCell id="b5JLD9fiZatqp3Hv4nZQ-56" value="" style="shape=link;html=1;strokeWidth=2;fillColor=#f5f5f5;strokeColor=#666666;" parent="1" source="b5JLD9fiZatqp3Hv4nZQ-24" target="b5JLD9fiZatqp3Hv4nZQ-51" edge="1">
          <mxGeometry width="100" relative="1" as="geometry">
            <mxPoint x="110" y="1560" as="sourcePoint" />
            <mxPoint x="210" y="1560" as="targetPoint" />
            <Array as="points">
              <mxPoint x="270" y="1245" />
              <mxPoint x="270" y="1550" />
            </Array>
          </mxGeometry>
        </mxCell>
        <mxCell id="b5JLD9fiZatqp3Hv4nZQ-58" value="" style="endArrow=none;html=1;strokeWidth=1;" parent="1" edge="1">
          <mxGeometry width="50" height="50" relative="1" as="geometry">
            <mxPoint x="70" y="2220" as="sourcePoint" />
            <mxPoint x="770" y="2220" as="targetPoint" />
          </mxGeometry>
        </mxCell>
        <mxCell id="b5JLD9fiZatqp3Hv4nZQ-59" value="&lt;span style=&quot;font-size: 18px&quot;&gt;&lt;b&gt;准备启动windows程序&lt;/b&gt;&lt;/span&gt;" style="text;html=1;align=center;verticalAlign=middle;resizable=0;points=[];autosize=1;" parent="1" vertex="1">
          <mxGeometry x="80" y="2030" width="200" height="20" as="geometry" />
        </mxCell>
        <mxCell id="Tomk_LjzMx839LBk0OIq-1" value="&lt;font color=&quot;#6c8ebf&quot;&gt;add-symbol-file &lt;/font&gt;&lt;br&gt;&lt;font color=&quot;#b85450&quot;&gt;dll/kernel32/kernel32.dll.so&lt;/font&gt;&lt;br&gt;&lt;font color=&quot;#6c8ebf&quot;&gt;(-o 0x7E6DC000@qemu)&lt;/font&gt;" style="endArrow=none;dashed=1;html=1;strokeWidth=1;fillColor=#dae8fc;strokeColor=#6c8ebf;" parent="1" edge="1">
          <mxGeometry width="50" height="50" relative="1" as="geometry">
            <mxPoint x="60" y="1250" as="sourcePoint" />
            <mxPoint x="260" y="1250" as="targetPoint" />
          </mxGeometry>
        </mxCell>
        <mxCell id="Tomk_LjzMx839LBk0OIq-3" value="&lt;span style=&quot;font-size: 18px&quot;&gt;&lt;b&gt;windows程序&lt;/b&gt;&lt;/span&gt;" style="text;html=1;align=center;verticalAlign=middle;resizable=0;points=[];autosize=1;" parent="1" vertex="1">
          <mxGeometry x="80" y="2230" width="130" height="20" as="geometry" />
        </mxCell>
        <mxCell id="Tomk_LjzMx839LBk0OIq-4" value="&lt;b&gt;attach_thread&lt;/b&gt;" style="rounded=0;whiteSpace=wrap;html=1;" parent="1" vertex="1">
          <mxGeometry x="360" y="1660" width="80" height="30" as="geometry" />
        </mxCell>
        <mxCell id="Tomk_LjzMx839LBk0OIq-5" value="&lt;b&gt;virtual_clear_thread_stack&lt;/b&gt;" style="rounded=0;whiteSpace=wrap;html=1;" parent="1" vertex="1">
          <mxGeometry x="360" y="1860" width="160" height="20" as="geometry" />
        </mxCell>
        <mxCell id="Tomk_LjzMx839LBk0OIq-6" value="dlls/ntdll/unix/signal_i386.c: 2278~2299" style="text;html=1;align=left;verticalAlign=middle;resizable=0;points=[];autosize=1;" parent="1" vertex="1">
          <mxGeometry x="360" y="1640" width="220" height="20" as="geometry" />
        </mxCell>
        <mxCell id="Tomk_LjzMx839LBk0OIq-14" style="edgeStyle=orthogonalEdgeStyle;rounded=0;orthogonalLoop=1;jettySize=auto;html=1;fillColor=#e1d5e7;strokeColor=#9673a6;strokeWidth=2;" parent="1" source="Tomk_LjzMx839LBk0OIq-8" target="uO-6_LORsdthiIH6uX4f-16" edge="1">
          <mxGeometry relative="1" as="geometry">
            <Array as="points">
              <mxPoint x="510" y="1700" />
              <mxPoint x="570" y="1700" />
              <mxPoint x="570" y="1890" />
              <mxPoint x="500" y="1890" />
            </Array>
          </mxGeometry>
        </mxCell>
        <mxCell id="Tomk_LjzMx839LBk0OIq-8" value="LPTHREAD_ START_ ROUTINE entry" style="rounded=0;whiteSpace=wrap;html=1;fillColor=#e1d5e7;strokeColor=#9673a6;" parent="1" vertex="1">
          <mxGeometry x="440" y="1660" width="140" height="30" as="geometry" />
        </mxCell>
        <mxCell id="Tomk_LjzMx839LBk0OIq-9" value="BOOL suspend" style="rounded=0;whiteSpace=wrap;html=1;fillColor=#f5f5f5;strokeColor=#666666;fontColor=#333333;" parent="1" vertex="1">
          <mxGeometry x="620" y="1660" width="60" height="30" as="geometry" />
        </mxCell>
        <mxCell id="Tomk_LjzMx839LBk0OIq-10" value="void *arg" style="rounded=0;whiteSpace=wrap;html=1;fillColor=#f5f5f5;strokeColor=#666666;fontColor=#333333;" parent="1" vertex="1">
          <mxGeometry x="580" y="1660" width="40" height="30" as="geometry" />
        </mxCell>
        <mxCell id="Tomk_LjzMx839LBk0OIq-11" value="void *relay" style="rounded=0;whiteSpace=wrap;html=1;fillColor=#f8cecc;strokeColor=#b85450;" parent="1" vertex="1">
          <mxGeometry x="680" y="1660" width="40" height="30" as="geometry" />
        </mxCell>
        <mxCell id="Tomk_LjzMx839LBk0OIq-15" value="&lt;b&gt;LdrInitializeThunk&lt;/b&gt;" style="rounded=0;whiteSpace=wrap;html=1;" parent="1" vertex="1">
          <mxGeometry x="400" y="1710" width="120" height="20" as="geometry" />
        </mxCell>
        <mxCell id="Tomk_LjzMx839LBk0OIq-17" value="dlls/ntdll/loader.c: 3411~3489" style="text;html=1;align=left;verticalAlign=middle;resizable=0;points=[];autosize=1;" parent="1" vertex="1">
          <mxGeometry x="400" y="1690" width="170" height="20" as="geometry" />
        </mxCell>
        <mxCell id="Tomk_LjzMx839LBk0OIq-18" value="&lt;b&gt;fixup_imports&lt;/b&gt;" style="rounded=0;whiteSpace=wrap;html=1;" parent="1" vertex="1">
          <mxGeometry x="440" y="1750" width="80" height="20" as="geometry" />
        </mxCell>
        <mxCell id="Tomk_LjzMx839LBk0OIq-19" value="3432: dlls/ntdll/loader.c: 1107~1135" style="text;html=1;align=left;verticalAlign=middle;resizable=0;points=[];autosize=1;" parent="1" vertex="1">
          <mxGeometry x="440" y="1730" width="200" height="20" as="geometry" />
        </mxCell>
        <mxCell id="Tomk_LjzMx839LBk0OIq-20" value="..." style="rounded=0;whiteSpace=wrap;html=1;fillColor=#f5f5f5;strokeColor=#666666;fontColor=#333333;" parent="1" vertex="1">
          <mxGeometry x="520" y="1710" width="20" height="20" as="geometry" />
        </mxCell>
        <mxCell id="Tomk_LjzMx839LBk0OIq-21" value="..." style="rounded=0;whiteSpace=wrap;html=1;fillColor=#f5f5f5;strokeColor=#666666;fontColor=#333333;" parent="1" vertex="1">
          <mxGeometry x="520" y="1750" width="20" height="20" as="geometry" />
        </mxCell>
        <mxCell id="Tomk_LjzMx839LBk0OIq-22" value="&lt;b&gt;import_dll&lt;/b&gt;" style="rounded=0;whiteSpace=wrap;html=1;" parent="1" vertex="1">
          <mxGeometry x="460" y="1790" width="60" height="20" as="geometry" />
        </mxCell>
        <mxCell id="Tomk_LjzMx839LBk0OIq-23" value="1143: dlls/ntdll/loader.c: 750~887" style="text;html=1;align=left;verticalAlign=middle;resizable=0;points=[];autosize=1;" parent="1" vertex="1">
          <mxGeometry x="460" y="1770" width="190" height="20" as="geometry" />
        </mxCell>
        <mxCell id="Tomk_LjzMx839LBk0OIq-25" value="..." style="rounded=0;whiteSpace=wrap;html=1;fillColor=#f5f5f5;strokeColor=#666666;fontColor=#333333;" parent="1" vertex="1">
          <mxGeometry x="520" y="1790" width="20" height="20" as="geometry" />
        </mxCell>
        <mxCell id="Tomk_LjzMx839LBk0OIq-26" value="&lt;font color=&quot;#999999&quot;&gt;/// 多次调用该函数&lt;/font&gt;" style="text;html=1;align=left;verticalAlign=middle;resizable=0;points=[];autosize=1;" parent="1" vertex="1">
          <mxGeometry x="540" y="1790" width="110" height="20" as="geometry" />
        </mxCell>
        <mxCell id="Tomk_LjzMx839LBk0OIq-27" value="&lt;b&gt;load_dll&lt;/b&gt;" style="rounded=0;whiteSpace=wrap;html=1;" parent="1" vertex="1">
          <mxGeometry x="480" y="1830" width="60" height="20" as="geometry" />
        </mxCell>
        <mxCell id="Tomk_LjzMx839LBk0OIq-28" value="dlls/ntdll/loader.c: 2619~2748" style="text;html=1;align=left;verticalAlign=middle;resizable=0;points=[];autosize=1;" parent="1" vertex="1">
          <mxGeometry x="480" y="1810" width="170" height="20" as="geometry" />
        </mxCell>
        <mxCell id="Tomk_LjzMx839LBk0OIq-29" value="" style="shape=link;html=1;strokeWidth=2;fillColor=#f5f5f5;strokeColor=#666666;" parent="1" source="b5JLD9fiZatqp3Hv4nZQ-42" target="Tomk_LjzMx839LBk0OIq-27" edge="1">
          <mxGeometry width="100" relative="1" as="geometry">
            <mxPoint x="440" y="1530" as="sourcePoint" />
            <mxPoint x="480" y="1835" as="targetPoint" />
            <Array as="points">
              <mxPoint x="260" y="1485" />
              <mxPoint x="260" y="1840" />
            </Array>
          </mxGeometry>
        </mxCell>
        <mxCell id="Tomk_LjzMx839LBk0OIq-30" value="..." style="rounded=0;whiteSpace=wrap;html=1;fillColor=#f5f5f5;strokeColor=#666666;fontColor=#333333;" parent="1" vertex="1">
          <mxGeometry x="540" y="1830" width="20" height="20" as="geometry" />
        </mxCell>
      </root>
    </mxGraphModel>
  </diagram>
</mxfile>
